# xmcd
#
# Track frame offsets: 
#        150
#        14855
#        30332
#        52125
#        68385
#        83857
#        99742
#        117390
#        137437
#        156090
#
# Disc length: 2236 seconds
#
# Revision: 1
# Processed by: cddbd v1.5.2PL0 Copyright (c) Steve Scherf et al.
# Submitted via: ExactAudioCopy v1.0b3
#
DISCID=7f08ba0a
DTITLE=Tyrone Davis - Pleasing You
DYEAR=1997
DGENRE=Soul
TTITLE0=U. Should Be My Girl
TTITLE1=Black Magic
TTITLE2=Delicious
TTITLE3=I Wanna Do You
TTITLE4=Gotta Get You Off My Mind
TTITLE5=Keep It Comin'
TTITLE6=We Can't Go On Like This
TTITLE7=Temporary Lovin
TTITLE8=Let Me Please You
TTITLE9=Such An Easy Question
EXTD=
EXTT0=
EXTT1=
EXTT2=
EXTT3=
EXTT4=
EXTT5=
EXTT6=
EXTT7=
EXTT8=
EXTT9=
PLAYORDER=
